<svg xmlns="http://www.w3.org/2000/svg" width="197" height="197" viewBox="0 0 197 197" version="1.1">
	<g transform="translate(4,0)">
		<path d="M -0 99.015 L 0 197.010 94.750 196.755 L 189.500 196.500 189.755 98.500 L 190.010 0.500 95.005 0.760 L -0 1.020 -0 99.015 M 0.481 99 C 0.481 153.175, 0.602 175.337, 0.750 148.250 C 0.898 121.162, 0.898 76.837, 0.750 49.750 C 0.602 22.662, 0.481 44.825, 0.481 99 M 87 13.076 C 57.349 16.207, 30.461 35.858, 17.889 63.585 C 7.693 86.071, 8.253 115.092, 19.307 137.138 C 23.229 144.960, 23.722 145.521, 26.933 145.827 C 33.242 146.428, 37.044 145.039, 42.140 140.272 C 51.563 131.458, 56.319 116.396, 57.996 90.060 C 58.945 75.151, 59.837 70.942, 62.725 67.752 C 66.448 63.637, 71.599 66.236, 85.994 79.494 C 102.872 95.040, 106 95.259, 106 80.896 C 106 73.092, 107.570 67.002, 109.963 65.523 C 112.453 63.984, 118.187 66.326, 128.629 73.148 C 143.078 82.588, 157.533 89.452, 168.402 92.033 C 182.998 95.499, 184.467 93.998, 180.987 79.174 C 170.993 36.602, 130.940 8.435, 87 13.076 M 121.900 89.187 C 121.059 90.758, 120.923 95.899, 121.417 107.437 C 122.425 130.984, 121.759 131.395, 105.090 117.521 C 92.871 107.351, 89.267 105, 85.896 105 C 81.233 105, 80.685 107.400, 81.462 124.398 C 82.587 148.997, 79.606 160.266, 69.394 170.013 C 66.427 172.844, 64 175.789, 64 176.557 C 64 180.815, 80.365 184.983, 97.122 184.993 C 117.506 185.005, 135.608 178.645, 151.752 165.799 C 168.066 152.818, 180.451 130.117, 182.639 109.183 C 183.401 101.891, 182.938 101.538, 171.500 100.662 C 161.628 99.907, 145.185 95.471, 134.338 90.637 C 124.827 86.399, 123.476 86.241, 121.900 89.187" stroke="none" fill="black" fill-rule="evenodd"/>
	</g>
</svg>